<svg id="svg" version="1.1" xmlns="http://www.w3.org/2000/svg" xmlns:xlink="http://www.w3.org/1999/xlink" width="400" height="266.5625" viewBox="0, 0, 400,266.5625"><g id="svgg"><path id="path0" d="M158.580 61.659 C 156.189 62.293,154.062 65.319,151.877 71.200 C 148.626 79.951,144.652 81.692,133.852 79.095 C 131.626 78.560,130.946 78.892,128.896 81.519 L 127.190 83.705 129.128 85.128 C 136.238 90.348,140.639 93.605,146.133 97.711 C 149.580 100.288,152.480 102.396,152.579 102.398 C 152.677 102.399,153.485 101.530,154.374 100.467 C 156.429 98.008,156.469 97.445,154.821 94.193 C 150.516 85.699,151.314 81.744,158.267 77.113 C 163.607 73.556,166.398 70.058,166.392 66.933 C 166.382 62.765,163.007 60.486,158.580 61.659 M162.600 65.215 C 163.638 66.394,163.302 67.924,161.839 68.681 C 159.698 69.788,157.459 67.329,158.829 65.374 C 159.723 64.097,161.549 64.020,162.600 65.215 M125.569 85.800 C 124.573 86.901,122.933 89.002,122.933 89.178 C 122.933 89.356,132.082 96.186,135.467 98.535 C 137.700 100.085,139.841 101.638,145.315 105.680 C 146.844 106.809,148.224 107.726,148.381 107.718 C 148.644 107.704,151.231 104.548,151.414 104.017 C 151.508 103.745,149.731 102.290,145.702 99.343 C 144.106 98.176,140.700 95.667,138.133 93.769 C 135.567 91.870,132.469 89.586,131.249 88.692 C 130.029 87.798,128.443 86.617,127.724 86.067 C 126.165 84.875,126.382 84.902,125.569 85.800 M170.471 90.333 C 169.827 91.164,165.280 97.486,163.333 100.255 C 160.332 104.526,158.988 106.412,158.386 107.200 C 157.994 107.713,156.237 110.173,154.483 112.667 C 146.505 124.004,138.157 135.780,136.759 137.671 L 135.227 139.743 135.911 141.538 C 136.286 142.525,136.786 143.845,137.022 144.469 C 137.586 145.965,137.236 146.314,142.172 139.333 C 144.558 135.960,147.715 131.506,149.188 129.436 C 150.661 127.366,152.576 124.666,153.443 123.436 C 154.310 122.206,155.461 120.600,156.001 119.867 C 156.541 119.133,160.074 114.182,163.854 108.864 C 167.633 103.546,170.819 99.137,170.933 99.067 C 171.047 98.996,176.176 106.467,182.330 115.669 C 200.155 142.322,202.731 146.133,202.922 146.133 C 203.109 146.133,203.704 144.790,208.363 133.867 C 211.092 127.468,214.554 119.445,216.532 114.933 C 219.222 108.800,219.782 107.426,219.647 107.292 C 219.516 107.160,207.760 102.732,203.467 101.197 C 202.513 100.856,200.413 100.080,198.800 99.472 C 197.187 98.864,194.907 98.029,193.733 97.616 C 192.560 97.203,191.300 96.733,190.933 96.571 C 190.567 96.410,187.327 95.203,183.733 93.888 C 180.140 92.574,175.893 91.011,174.296 90.416 C 172.698 89.820,171.358 89.333,171.318 89.333 C 171.278 89.333,170.896 89.783,170.471 90.333 M270.580 92.654 C 269.288 93.115,269.070 93.331,269.889 93.341 C 270.469 93.349,270.485 93.378,270.050 93.630 C 269.785 93.785,269.395 93.845,269.184 93.764 C 268.973 93.683,268.800 93.733,268.800 93.875 C 268.800 94.017,268.950 94.137,269.133 94.141 C 269.317 94.146,269.254 94.273,268.994 94.424 C 268.735 94.576,268.587 94.804,268.665 94.931 C 268.744 95.059,268.695 95.233,268.556 95.319 C 268.417 95.405,268.228 95.353,268.136 95.204 C 267.611 94.356,265.463 96.449,265.691 97.588 C 265.795 98.110,265.760 98.365,265.596 98.264 C 265.452 98.175,265.333 98.222,265.333 98.369 C 265.333 98.515,265.439 98.700,265.568 98.780 C 265.697 98.860,265.866 99.167,265.943 99.463 C 266.024 99.775,265.974 99.933,265.824 99.840 C 265.487 99.632,264.822 100.515,264.800 101.200 C 264.784 101.699,264.000 103.024,264.000 102.552 C 264.000 102.432,263.821 102.483,263.603 102.664 C 263.385 102.845,263.272 103.100,263.352 103.230 C 263.432 103.360,263.315 103.467,263.091 103.467 C 262.838 103.467,262.742 103.619,262.837 103.867 C 262.921 104.087,262.850 104.267,262.679 104.267 C 262.508 104.267,262.438 104.379,262.523 104.517 C 262.608 104.654,261.625 106.340,260.339 108.263 C 259.052 110.187,257.672 112.264,257.272 112.880 C 256.871 113.496,256.271 114.346,255.938 114.768 C 255.606 115.190,255.166 115.850,254.961 116.235 C 254.757 116.619,254.506 116.993,254.405 117.067 C 254.304 117.140,252.812 119.300,251.090 121.867 C 249.369 124.433,247.331 127.433,246.561 128.533 C 241.131 136.294,232.000 149.965,232.000 150.333 C 232.000 150.473,233.230 150.255,234.733 149.849 C 236.237 149.442,237.788 149.040,238.181 148.955 C 238.750 148.831,239.736 147.584,242.998 142.866 C 251.204 130.998,255.107 125.368,258.519 120.480 C 267.125 108.150,268.902 105.595,270.337 103.488 C 272.306 100.598,272.017 100.517,274.822 104.747 C 276.154 106.756,282.844 116.799,289.688 127.063 L 302.131 145.727 305.384 146.589 C 307.174 147.063,308.688 147.401,308.750 147.339 C 308.812 147.277,307.938 145.870,306.808 144.213 C 305.677 142.556,300.217 134.420,294.674 126.133 C 289.131 117.847,282.490 107.947,279.917 104.133 C 277.344 100.320,274.540 96.095,273.686 94.743 C 272.001 92.078,272.068 92.123,270.580 92.654 M265.733 94.054 C 265.000 94.284,264.550 94.526,264.733 94.591 C 264.917 94.657,265.067 95.117,265.067 95.614 C 265.067 96.239,265.172 96.476,265.409 96.385 C 265.857 96.213,265.963 94.936,265.530 94.925 C 265.100 94.915,266.014 94.386,267.200 93.959 C 268.548 93.474,267.335 93.553,265.733 94.054 M260.267 95.733 C 259.717 95.909,259.694 95.951,260.133 95.969 C 260.427 95.982,260.847 95.876,261.067 95.733 C 261.534 95.431,261.210 95.431,260.267 95.733 M264.533 99.622 C 264.533 100.093,265.107 100.011,265.272 99.517 C 265.330 99.343,265.188 99.200,264.956 99.200 C 264.723 99.200,264.533 99.390,264.533 99.622 M145.067 109.067 C 145.287 109.209,145.347 109.329,145.200 109.333 C 145.053 109.338,145.113 109.456,145.333 109.596 C 145.671 109.811,145.679 109.939,145.382 110.418 C 144.867 111.248,145.209 111.371,145.747 110.550 C 146.224 109.822,145.759 108.793,144.959 108.804 C 144.798 108.806,144.847 108.924,145.067 109.067 M165.292 123.185 C 165.241 123.333,165.240 124.361,165.288 125.470 L 165.376 127.485 167.955 127.409 L 170.533 127.333 170.533 125.200 L 170.533 123.067 167.959 122.991 C 166.391 122.944,165.348 123.020,165.292 123.185 M172.000 125.200 L 172.000 127.467 174.533 127.467 L 177.067 127.467 177.067 125.200 L 177.067 122.933 174.533 122.933 L 172.000 122.933 172.000 125.200 M266.933 126.114 L 266.933 128.227 269.223 128.314 C 271.974 128.417,271.733 128.631,271.733 126.089 L 271.733 124.000 269.333 124.000 L 266.933 124.000 266.933 126.114 M273.244 124.178 C 273.147 124.276,273.067 125.222,273.067 126.280 L 273.067 128.205 274.733 128.349 C 275.650 128.429,276.760 128.473,277.200 128.447 L 278.000 128.400 278.077 126.200 L 278.155 124.000 275.789 124.000 C 274.487 124.000,273.342 124.080,273.244 124.178 M165.253 130.682 C 165.026 133.386,164.974 133.333,167.867 133.333 C 170.741 133.333,170.667 133.405,170.667 130.645 L 170.667 128.800 168.039 128.800 L 165.411 128.800 165.253 130.682 M172.000 131.077 L 172.000 133.353 174.467 133.277 L 176.933 133.200 177.011 131.000 L 177.088 128.800 174.544 128.800 L 172.000 128.800 172.000 131.077 M266.933 131.733 L 266.933 133.867 269.333 133.867 L 271.733 133.867 271.733 131.733 L 271.733 129.600 269.333 129.600 L 266.933 129.600 266.933 131.733 M273.122 131.667 L 273.200 133.733 275.600 133.733 L 278.000 133.733 278.078 131.667 L 278.156 129.600 275.600 129.600 L 273.044 129.600 273.122 131.667 M240.800 165.702 C 239.847 166.041,238.407 166.472,237.600 166.661 C 236.793 166.849,236.013 167.089,235.867 167.194 C 235.720 167.298,235.000 167.537,234.267 167.725 C 232.194 168.254,227.013 169.928,221.600 171.816 C 218.887 172.763,214.387 174.266,211.600 175.157 C 206.934 176.649,204.968 177.188,197.467 179.034 C 196.000 179.395,195.100 179.702,195.467 179.715 C 195.833 179.729,197.093 179.501,198.267 179.209 C 199.440 178.917,201.900 178.381,203.733 178.018 C 205.567 177.656,208.147 177.114,209.467 176.814 C 221.577 174.063,228.560 172.570,235.067 171.338 C 237.853 170.811,240.913 170.211,241.867 170.005 C 242.820 169.799,244.080 169.550,244.667 169.452 C 246.046 169.221,245.112 168.738,243.200 168.694 C 241.906 168.665,241.305 168.184,242.400 168.055 C 242.927 167.993,242.983 168.034,242.667 168.251 C 242.046 168.676,243.146 168.595,244.133 168.143 L 244.933 167.777 244.241 167.755 C 243.545 167.733,241.999 167.071,241.425 166.548 C 241.200 166.343,241.453 166.110,242.358 165.689 C 244.039 164.907,243.014 164.916,240.800 165.702 M247.000 168.984 C 247.257 169.051,247.677 169.051,247.933 168.984 C 248.190 168.917,247.980 168.862,247.467 168.862 C 246.953 168.862,246.743 168.917,247.000 168.984 " stroke="none" fill="#1e366a" fill-rule="evenodd"></path><path id="path1" d="M0.000 133.333 L 0.000 266.667 200.000 266.667 L 400.000 266.667 400.000 133.333 L 400.000 0.000 200.000 0.000 L 0.000 0.000 0.000 133.333 M163.700 61.849 C 169.338 64.726,166.990 71.468,158.347 77.222 C 151.598 81.715,150.728 85.571,154.678 93.472 C 156.807 97.731,156.762 98.144,153.819 101.435 L 152.655 102.737 150.128 100.892 C 148.737 99.878,144.480 96.722,140.667 93.880 C 132.770 87.995,129.313 85.440,128.067 84.569 C 126.932 83.776,126.945 83.713,128.708 81.496 C 131.276 78.268,131.378 78.237,135.747 79.363 C 144.423 81.598,148.534 79.360,151.972 70.533 C 155.204 62.234,158.977 59.440,163.700 61.849 M159.369 65.086 C 158.833 65.508,158.667 65.876,158.667 66.640 C 158.667 68.613,160.886 69.538,162.279 68.145 C 164.207 66.217,161.521 63.393,159.369 65.086 M128.700 86.575 C 129.561 87.184,133.507 90.094,137.467 93.040 C 141.427 95.986,146.118 99.472,147.892 100.788 C 152.273 104.036,152.081 103.610,150.227 105.974 C 148.284 108.451,149.116 108.667,142.837 104.054 C 139.883 101.883,136.027 99.101,134.267 97.871 C 128.074 93.542,122.643 89.320,122.840 88.988 C 123.903 87.185,126.254 84.818,126.673 85.128 C 126.926 85.314,127.838 85.965,128.700 86.575 M176.533 91.066 C 177.927 91.596,180.027 92.374,181.200 92.795 C 182.373 93.216,184.593 94.032,186.133 94.608 C 187.673 95.184,190.913 96.380,193.333 97.266 C 195.753 98.152,200.373 99.862,203.600 101.065 C 206.827 102.269,210.547 103.652,211.867 104.138 C 213.187 104.625,215.467 105.471,216.933 106.019 C 220.290 107.272,220.062 107.282,225.467 105.657 C 229.246 104.521,250.798 98.174,261.067 95.173 C 262.607 94.723,264.587 94.130,265.467 93.856 C 269.159 92.705,272.125 91.974,272.199 92.197 C 272.286 92.458,275.931 97.928,284.240 110.267 C 287.202 114.667,292.551 122.647,296.125 128.000 C 299.700 133.353,304.074 139.871,305.845 142.484 C 309.096 147.279,309.451 147.939,308.600 147.609 C 308.343 147.510,306.773 147.086,305.109 146.668 C 303.446 146.250,302.052 145.868,302.012 145.820 C 301.903 145.690,276.641 107.797,274.367 104.354 C 272.013 100.787,272.325 100.869,270.602 103.372 C 269.831 104.493,267.880 107.309,266.267 109.630 C 264.653 111.951,260.993 117.223,258.133 121.345 C 255.273 125.468,250.704 132.042,247.980 135.954 C 245.256 139.866,242.134 144.376,241.043 145.977 L 239.059 148.887 236.263 149.637 C 230.001 151.318,222.420 151.684,222.770 150.290 C 222.848 149.979,223.047 149.096,223.212 148.329 L 223.511 146.933 226.006 146.933 C 227.379 146.933,228.565 146.832,228.641 146.708 C 228.812 146.431,228.342 139.173,228.114 138.580 C 227.704 137.511,226.051 137.754,225.636 138.944 C 225.278 139.973,225.295 139.978,223.163 138.255 C 221.038 136.538,221.063 136.625,222.236 135.089 C 222.732 134.439,223.460 133.064,223.853 132.034 L 224.569 130.162 226.751 130.304 C 228.679 130.430,229.241 130.350,231.566 129.623 C 233.014 129.170,234.528 128.800,234.930 128.800 C 236.368 128.800,238.219 126.288,238.648 123.755 C 238.796 122.881,238.855 122.840,240.127 122.733 C 242.273 122.553,243.499 120.918,241.876 120.403 C 240.088 119.835,237.485 121.035,237.725 122.316 C 237.862 123.048,237.809 123.202,237.412 123.210 C 237.116 123.216,236.729 123.649,236.400 124.343 C 235.835 125.533,235.703 125.602,233.000 126.111 C 232.157 126.270,230.827 126.541,230.044 126.712 C 228.686 127.011,228.540 126.987,226.822 126.183 L 225.022 125.341 225.578 124.634 C 226.499 123.463,226.375 120.734,225.354 119.713 C 222.967 117.326,219.927 120.174,221.173 123.629 C 221.352 124.126,221.255 124.211,220.339 124.357 C 218.972 124.576,218.345 125.303,217.343 127.834 C 216.218 130.677,215.875 131.300,214.524 132.959 C 212.617 135.300,212.424 136.639,213.574 139.534 C 214.941 142.976,215.035 143.573,214.657 146.451 C 214.203 149.911,214.349 149.766,211.726 149.365 C 206.488 148.563,203.528 147.418,202.335 145.733 C 201.476 144.520,191.095 129.056,179.200 111.272 C 174.763 104.638,171.041 99.267,170.930 99.336 C 170.818 99.405,168.235 102.972,165.189 107.264 C 162.143 111.555,159.208 115.667,158.666 116.400 C 157.717 117.685,156.742 119.048,153.600 123.481 C 151.671 126.202,147.707 131.810,145.867 134.421 C 140.872 141.506,137.710 145.860,137.555 145.863 C 137.458 145.865,137.168 145.297,136.912 144.600 C 136.656 143.903,136.166 142.647,135.823 141.808 C 135.022 139.847,135.033 139.693,136.067 138.322 C 137.430 136.514,141.376 131.002,145.756 124.786 C 146.330 123.971,148.480 120.933,150.533 118.033 C 152.587 115.133,154.447 112.498,154.667 112.177 C 154.887 111.855,156.087 110.172,157.333 108.437 C 158.580 106.701,159.778 105.023,159.995 104.707 C 161.304 102.805,169.820 90.899,170.453 90.084 L 171.217 89.101 172.609 89.603 C 173.374 89.878,175.140 90.537,176.533 91.066 M123.862 93.133 C 126.624 95.180,126.623 95.067,123.917 98.017 C 113.391 109.491,108.830 120.145,110.931 128.349 C 111.721 131.434,111.782 131.960,111.629 134.332 C 110.899 145.673,111.178 153.637,112.447 157.683 C 113.364 160.608,113.125 160.709,111.427 158.116 C 104.464 147.483,101.394 130.920,104.140 118.792 C 106.019 110.491,109.713 103.962,117.253 95.617 C 118.544 94.189,119.885 92.670,120.234 92.243 C 121.100 91.182,121.294 91.230,123.862 93.133 M130.858 98.246 C 133.715 100.216,133.683 100.030,131.537 102.227 C 125.884 108.016,120.360 116.647,118.810 122.112 C 118.418 123.494,117.866 125.078,117.583 125.632 C 116.495 127.766,115.853 130.405,115.571 133.907 C 115.368 136.414,114.168 140.492,113.784 139.978 C 113.738 139.917,113.776 138.247,113.869 136.267 C 114.045 132.482,113.805 127.850,113.297 125.262 C 112.445 120.916,113.429 118.334,116.013 118.133 L 117.733 118.000 117.686 116.933 C 117.660 116.347,117.330 115.173,116.952 114.326 C 115.957 112.088,116.097 111.319,117.986 108.667 C 118.509 107.933,119.470 106.549,120.122 105.590 C 122.209 102.520,127.839 96.413,128.386 96.626 C 128.541 96.686,129.653 97.414,130.858 98.246 M137.549 103.062 C 140.063 104.795,140.040 104.333,137.736 106.945 C 137.148 107.612,136.367 108.514,136.000 108.951 C 135.633 109.387,134.303 110.942,133.044 112.406 C 126.226 120.328,121.590 127.931,119.386 134.800 C 119.010 135.973,118.476 137.464,118.201 138.112 L 117.700 139.291 117.335 136.941 C 116.880 134.019,117.440 131.370,119.620 126.133 C 120.383 124.300,121.217 122.020,121.472 121.067 C 122.496 117.252,125.038 112.803,129.166 107.600 C 131.565 104.576,134.692 101.286,135.039 101.420 C 135.201 101.483,136.330 102.222,137.549 103.062 M143.872 107.485 C 145.257 108.521,146.456 109.474,146.535 109.603 C 146.615 109.731,145.168 111.673,143.320 113.918 C 127.254 133.439,124.690 154.423,137.454 161.930 C 152.984 171.063,174.257 170.166,221.200 158.399 C 242.663 153.020,249.204 151.812,261.600 150.943 C 279.892 149.660,302.131 152.434,312.074 157.238 L 313.467 157.910 311.600 157.758 C 304.894 157.209,295.459 157.030,288.816 157.324 C 275.687 157.906,259.910 159.992,268.547 160.004 C 276.003 160.015,286.777 161.159,295.182 162.834 C 303.202 164.432,305.250 165.399,304.155 167.071 C 303.535 168.017,302.242 168.262,299.328 167.986 C 283.582 166.497,262.673 167.050,247.733 169.352 C 238.262 170.811,229.376 172.598,207.333 177.475 C 187.588 181.843,173.219 183.518,162.667 182.680 C 134.926 180.477,118.026 170.751,114.822 155.145 C 114.115 151.701,114.679 144.899,115.754 143.892 C 115.991 143.671,116.027 143.795,115.904 144.400 C 114.498 151.318,116.609 159.508,121.175 164.852 C 123.545 167.625,130.419 172.309,131.556 171.924 C 131.727 171.867,131.485 171.621,131.018 171.379 C 125.018 168.264,119.254 157.675,119.209 149.682 C 119.199 147.862,119.584 147.237,119.878 148.598 C 120.133 149.780,121.730 153.624,122.831 155.707 C 123.885 157.701,123.897 157.683,123.214 155.136 C 120.810 146.182,122.795 135.895,127.988 130.400 C 129.028 129.300,130.551 127.380,131.372 126.133 C 132.193 124.887,133.704 122.607,134.730 121.067 C 135.755 119.527,136.415 118.447,136.196 118.667 C 135.497 119.368,132.689 122.744,131.409 124.422 C 130.728 125.314,129.144 126.916,127.887 127.982 C 122.033 132.952,120.872 135.383,120.555 143.333 C 120.398 147.254,120.389 147.305,120.064 145.920 C 118.490 139.200,121.255 131.018,128.283 121.600 C 129.542 119.913,130.946 117.981,131.405 117.305 C 132.946 115.036,140.781 105.626,141.144 105.610 C 141.259 105.604,142.487 106.448,143.872 107.485 M170.610 125.133 L 170.533 127.600 167.867 127.600 L 165.200 127.600 165.121 125.490 C 165.011 122.535,164.877 122.667,168.002 122.667 L 170.687 122.667 170.610 125.133 M177.200 125.200 L 177.200 127.600 174.533 127.600 L 171.867 127.600 171.788 125.490 C 171.677 122.510,171.551 122.634,174.595 122.724 L 177.200 122.800 177.200 125.200 M271.867 126.133 L 271.867 128.400 269.333 128.400 L 266.800 128.400 266.721 126.425 C 266.608 123.607,266.513 123.700,269.395 123.790 L 271.867 123.867 271.867 126.133 M278.133 126.133 L 278.133 128.533 275.600 128.533 L 273.067 128.533 273.067 126.133 L 273.067 123.733 275.600 123.733 L 278.133 123.733 278.133 126.133 M170.667 130.908 L 170.667 133.282 168.067 133.389 C 164.819 133.524,165.067 133.728,165.067 130.918 L 165.067 128.533 167.867 128.533 L 170.667 128.533 170.667 130.908 M177.200 130.933 L 177.200 133.200 174.467 133.276 L 171.733 133.352 171.733 131.120 C 171.733 128.370,171.583 128.500,174.653 128.591 L 177.200 128.667 177.200 130.933 M271.945 131.577 C 272.039 134.080,272.131 134.000,269.154 134.000 L 266.800 134.000 266.721 132.025 C 266.608 129.207,266.513 129.300,269.395 129.390 L 271.867 129.467 271.945 131.577 M278.133 131.595 C 278.133 134.236,278.161 134.214,275.061 134.080 L 273.200 134.000 273.123 131.667 L 273.046 129.333 275.590 129.333 L 278.133 129.333 278.133 131.595 M117.581 140.200 C 117.545 141.634,117.106 142.106,117.085 140.733 C 117.075 140.037,117.187 139.467,117.333 139.467 C 117.480 139.467,117.592 139.797,117.581 140.200 M218.729 142.111 C 219.674 142.956,219.944 145.853,219.384 149.133 C 218.998 151.390,218.572 150.635,218.768 148.043 C 219.007 144.871,218.615 143.031,217.573 142.438 C 217.150 142.197,216.803 141.850,216.802 141.667 C 216.799 141.074,217.835 141.313,218.729 142.111 M133.593 147.093 C 138.787 157.643,157.842 163.212,184.199 161.884 C 189.311 161.626,191.729 161.410,197.733 160.674 L 198.800 160.543 197.600 160.906 C 196.940 161.106,195.080 161.533,193.467 161.855 C 155.456 169.451,135.276 164.342,132.691 146.467 C 132.472 144.954,132.575 145.026,133.593 147.093 " stroke="none" fill="#fbfbfb" fill-rule="evenodd"></path><path id="path2" d="M160.470 61.255 C 160.801 61.319,161.281 61.317,161.536 61.250 C 161.791 61.183,161.520 61.131,160.933 61.134 C 160.347 61.137,160.138 61.191,160.470 61.255 M162.279 65.188 C 163.038 65.947,163.128 67.043,162.512 68.007 L 162.091 68.667 162.645 68.037 C 163.527 67.037,162.965 64.533,161.859 64.533 C 161.730 64.533,161.919 64.828,162.279 65.188 M166.480 66.933 C 166.480 67.740,166.530 68.070,166.591 67.667 C 166.652 67.263,166.652 66.603,166.591 66.200 C 166.530 65.797,166.480 66.127,166.480 66.933 M158.462 66.667 C 158.462 67.180,158.517 67.390,158.584 67.133 C 158.651 66.877,158.651 66.457,158.584 66.200 C 158.517 65.943,158.462 66.153,158.462 66.667 M163.484 72.878 C 162.122 74.403,162.030 74.552,163.039 73.600 C 164.142 72.559,165.534 70.912,165.285 70.944 C 165.238 70.950,164.428 71.820,163.484 72.878 M150.319 74.537 C 150.075 75.048,149.930 75.467,149.997 75.467 C 150.180 75.467,150.989 73.834,150.867 73.712 C 150.810 73.654,150.563 74.025,150.319 74.537 M158.454 76.914 C 157.216 77.790,157.041 78.041,158.087 77.441 C 158.575 77.162,159.100 76.783,159.253 76.600 C 159.647 76.129,159.462 76.202,158.454 76.914 M148.252 77.533 L 147.333 78.533 148.333 77.614 C 149.264 76.759,149.456 76.533,149.252 76.533 C 149.208 76.533,148.758 76.983,148.252 77.533 M139.671 80.193 C 140.151 80.253,140.871 80.251,141.271 80.191 C 141.672 80.130,141.280 80.081,140.400 80.083 C 139.520 80.084,139.192 80.134,139.671 80.193 M152.329 86.933 C 152.329 87.447,152.383 87.657,152.450 87.400 C 152.518 87.143,152.518 86.723,152.450 86.467 C 152.383 86.210,152.329 86.420,152.329 86.933 M129.696 87.406 C 129.907 87.747,131.467 88.902,131.467 88.716 C 131.467 88.651,131.026 88.261,130.488 87.850 C 129.949 87.439,129.593 87.239,129.696 87.406 M132.096 87.406 C 132.307 87.747,133.867 88.902,133.867 88.716 C 133.867 88.651,133.426 88.261,132.888 87.850 C 132.349 87.439,131.993 87.239,132.096 87.406 M131.829 89.006 C 132.040 89.347,133.600 90.502,133.600 90.316 C 133.600 90.251,133.159 89.861,132.621 89.450 C 132.083 89.039,131.726 88.839,131.829 89.006 M172.800 89.822 C 173.020 89.958,173.500 90.149,173.867 90.247 C 174.330 90.371,174.411 90.350,174.133 90.178 C 173.913 90.042,173.433 89.851,173.067 89.753 C 172.603 89.629,172.522 89.650,172.800 89.822 M136.267 90.497 C 136.267 90.570,136.627 90.887,137.067 91.200 C 137.507 91.513,137.867 91.710,137.867 91.636 C 137.867 91.563,137.507 91.247,137.067 90.933 C 136.627 90.620,136.267 90.424,136.267 90.497 M134.933 91.297 C 134.933 91.370,135.293 91.687,135.733 92.000 C 136.173 92.313,136.533 92.510,136.533 92.436 C 136.533 92.363,136.173 92.047,135.733 91.733 C 135.293 91.420,134.933 91.224,134.933 91.297 M177.067 91.422 C 177.287 91.558,177.767 91.749,178.133 91.847 C 178.597 91.971,178.678 91.950,178.400 91.778 C 178.180 91.642,177.700 91.451,177.333 91.353 C 176.870 91.229,176.789 91.250,177.067 91.422 M168.267 93.067 C 167.953 93.507,167.757 93.867,167.830 93.867 C 167.904 93.867,168.220 93.507,168.533 93.067 C 168.847 92.627,169.043 92.267,168.970 92.267 C 168.896 92.267,168.580 92.627,168.267 93.067 M127.200 92.617 C 127.200 92.683,127.641 93.073,128.179 93.483 C 128.717 93.894,129.074 94.094,128.971 93.927 C 128.760 93.586,127.200 92.432,127.200 92.617 M139.200 92.617 C 139.200 92.683,139.641 93.073,140.179 93.483 C 140.717 93.894,141.074 94.094,140.971 93.927 C 140.760 93.586,139.200 92.432,139.200 92.617 M129.333 94.217 C 129.333 94.283,129.774 94.673,130.312 95.083 C 130.851 95.494,131.207 95.694,131.104 95.527 C 130.893 95.186,129.333 94.032,129.333 94.217 M155.385 95.330 C 155.629 95.841,155.876 96.213,155.934 96.155 C 156.056 96.033,155.247 94.400,155.064 94.400 C 154.997 94.400,155.142 94.818,155.385 95.330 M187.200 95.155 C 187.420 95.291,187.900 95.482,188.267 95.580 C 188.730 95.704,188.811 95.683,188.533 95.512 C 188.313 95.376,187.833 95.184,187.467 95.086 C 187.003 94.962,186.922 94.983,187.200 95.155 M166.133 96.000 C 165.820 96.440,165.624 96.800,165.697 96.800 C 165.770 96.800,166.087 96.440,166.400 96.000 C 166.713 95.560,166.910 95.200,166.836 95.200 C 166.763 95.200,166.447 95.560,166.133 96.000 M156.062 97.600 C 156.062 98.113,156.117 98.323,156.184 98.067 C 156.251 97.810,156.251 97.390,156.184 97.133 C 156.117 96.877,156.062 97.087,156.062 97.600 M164.267 98.667 C 163.953 99.107,163.757 99.467,163.830 99.467 C 163.904 99.467,164.220 99.107,164.533 98.667 C 164.847 98.227,165.043 97.867,164.970 97.867 C 164.896 97.867,164.580 98.227,164.267 98.667 M144.267 98.230 C 144.267 98.304,144.627 98.620,145.067 98.933 C 145.507 99.247,145.867 99.443,145.867 99.370 C 145.867 99.296,145.507 98.980,145.067 98.667 C 144.627 98.353,144.267 98.157,144.267 98.230 M146.762 98.339 C 146.973 98.681,148.533 99.835,148.533 99.650 C 148.533 99.584,148.093 99.194,147.554 98.783 C 147.016 98.373,146.660 98.173,146.762 98.339 M196.533 98.622 C 196.753 98.758,197.233 98.949,197.600 99.047 C 198.063 99.171,198.145 99.150,197.867 98.978 C 197.647 98.842,197.167 98.651,196.800 98.553 C 196.337 98.429,196.255 98.450,196.533 98.622 M154.419 100.401 C 152.740 102.471,152.640 102.543,152.055 102.104 C 151.695 101.834,151.702 101.871,152.089 102.281 C 152.599 102.823,153.680 101.911,155.504 99.400 C 156.477 98.060,155.846 98.642,154.419 100.401 M148.800 99.830 C 148.800 99.904,149.160 100.220,149.600 100.533 C 150.040 100.847,150.400 101.043,150.400 100.970 C 150.400 100.896,150.040 100.580,149.600 100.267 C 149.160 99.953,148.800 99.757,148.800 99.830 M162.666 100.867 C 162.273 101.403,162.209 101.589,162.497 101.355 C 162.934 101.000,163.595 100.000,163.393 100.000 C 163.342 100.000,163.015 100.390,162.666 100.867 M147.200 100.364 C 147.200 100.437,147.560 100.753,148.000 101.067 C 148.440 101.380,148.800 101.576,148.800 101.503 C 148.800 101.430,148.440 101.113,148.000 100.800 C 147.560 100.487,147.200 100.290,147.200 100.364 M201.600 100.488 C 201.820 100.624,202.300 100.816,202.667 100.914 C 203.130 101.038,203.211 101.017,202.933 100.845 C 202.713 100.709,202.233 100.518,201.867 100.420 C 201.403 100.296,201.322 100.317,201.600 100.488 M271.682 101.533 C 271.461 101.790,271.194 102.180,271.087 102.400 C 270.981 102.620,271.085 102.560,271.319 102.267 C 271.553 101.973,271.945 101.583,272.190 101.400 C 272.435 101.217,272.511 101.067,272.359 101.067 C 272.207 101.067,271.902 101.277,271.682 101.533 M150.913 103.259 C 151.460 103.886,151.497 104.048,151.187 104.459 C 150.845 104.912,150.852 104.912,151.340 104.465 C 151.841 104.006,151.835 103.982,151.066 103.265 L 150.282 102.533 150.913 103.259 M142.667 103.830 C 142.667 103.904,143.027 104.220,143.467 104.533 C 143.907 104.847,144.267 105.043,144.267 104.970 C 144.267 104.896,143.907 104.580,143.467 104.267 C 143.027 103.953,142.667 103.757,142.667 103.830 M175.323 105.533 C 175.735 106.157,176.122 106.667,176.184 106.667 C 176.376 106.667,175.355 105.044,174.955 104.713 C 174.746 104.541,174.912 104.910,175.323 105.533 M166.133 105.600 C 165.820 106.040,165.624 106.400,165.697 106.400 C 165.770 106.400,166.087 106.040,166.400 105.600 C 166.713 105.160,166.910 104.800,166.836 104.800 C 166.763 104.800,166.447 105.160,166.133 105.600 M158.933 106.133 C 158.620 106.573,158.424 106.933,158.497 106.933 C 158.570 106.933,158.887 106.573,159.200 106.133 C 159.513 105.693,159.710 105.333,159.636 105.333 C 159.563 105.333,159.247 105.693,158.933 106.133 M275.467 106.133 C 275.780 106.573,276.096 106.933,276.170 106.933 C 276.243 106.933,276.047 106.573,275.733 106.133 C 275.420 105.693,275.104 105.333,275.030 105.333 C 274.957 105.333,275.153 105.693,275.467 106.133 M138.853 108.076 C 133.438 114.474,131.735 116.691,133.000 115.699 C 133.422 115.368,133.432 115.377,133.103 115.797 C 132.903 116.052,132.647 116.204,132.534 116.134 C 132.218 115.938,128.484 121.304,128.696 121.648 C 128.806 121.825,128.763 121.876,128.593 121.770 C 128.429 121.669,127.801 122.257,127.142 123.129 C 125.285 125.584,124.662 126.682,125.375 126.241 C 125.567 126.122,125.610 126.168,125.489 126.363 C 125.383 126.535,125.182 126.605,125.042 126.518 C 124.718 126.318,123.397 129.271,123.637 129.659 C 123.735 129.819,123.700 129.877,123.558 129.790 C 123.136 129.529,120.570 134.892,120.137 136.939 C 119.644 139.267,119.641 144.537,120.133 146.000 L 120.491 147.067 120.353 145.988 C 120.019 143.365,121.241 136.138,122.404 133.858 C 123.091 132.513,125.148 130.308,127.887 127.982 C 129.144 126.916,130.726 125.314,131.405 124.422 C 132.083 123.530,133.098 122.269,133.660 121.620 C 134.428 120.734,134.597 120.383,134.341 120.209 C 134.092 120.040,134.123 119.999,134.454 120.056 C 134.707 120.099,135.274 119.719,135.732 119.200 C 136.185 118.687,135.725 119.527,134.710 121.067 C 133.695 122.607,132.193 124.887,131.372 126.133 C 130.551 127.380,129.028 129.300,127.988 130.400 C 122.795 135.895,120.810 146.182,123.214 155.136 C 123.897 157.683,123.885 157.701,122.831 155.707 C 121.730 153.624,120.133 149.780,119.878 148.598 C 119.584 147.237,119.199 147.862,119.209 149.682 C 119.254 157.675,125.018 168.264,131.018 171.379 C 131.485 171.621,131.727 171.867,131.556 171.924 C 130.419 172.309,123.545 167.625,121.175 164.852 C 116.609 159.508,114.498 151.318,115.904 144.400 C 116.027 143.795,115.991 143.671,115.754 143.892 C 114.679 144.899,114.115 151.701,114.822 155.145 C 118.942 175.213,147.498 186.225,183.733 181.719 C 191.352 180.771,194.496 180.230,194.082 179.937 C 193.852 179.774,193.991 179.747,194.489 179.856 C 194.905 179.947,195.183 179.922,195.108 179.800 C 195.033 179.678,196.432 179.241,198.219 178.829 C 202.730 177.788,208.321 176.285,208.655 176.022 C 208.808 175.901,209.413 175.717,210.000 175.613 C 210.587 175.508,211.647 175.132,212.355 174.778 C 213.064 174.423,213.885 174.133,214.180 174.133 C 214.475 174.133,215.021 173.893,215.394 173.600 C 215.767 173.307,216.289 173.067,216.555 173.067 C 216.821 173.067,217.603 172.767,218.292 172.400 C 218.982 172.033,219.878 171.733,220.284 171.733 C 220.690 171.733,221.062 171.617,221.111 171.475 C 221.160 171.333,222.194 170.858,223.410 170.420 C 225.395 169.704,227.200 168.723,227.200 168.361 C 227.200 168.287,226.701 168.262,226.091 168.306 C 225.197 168.370,224.948 168.287,224.804 167.877 C 224.681 167.529,224.564 167.468,224.430 167.684 C 224.323 167.858,224.309 168.120,224.400 168.267 C 224.491 168.413,224.438 168.533,224.282 168.533 C 224.113 168.533,224.000 167.842,224.000 166.800 C 224.000 165.822,224.116 165.067,224.267 165.067 C 224.425 165.067,224.533 164.094,224.533 162.683 L 224.533 160.299 225.731 160.120 C 227.142 159.908,227.088 159.585,225.600 159.333 C 225.015 159.234,224.468 159.044,224.386 158.910 C 224.126 158.491,223.395 158.630,223.563 159.067 C 223.717 159.467,223.187 159.632,222.846 159.291 C 222.488 158.932,223.745 158.389,225.191 158.278 C 226.010 158.215,227.239 157.887,227.920 157.548 C 230.435 156.300,227.704 156.735,218.644 159.025 C 185.159 167.488,167.104 169.619,151.733 166.923 C 132.770 163.597,126.354 154.496,130.685 137.067 C 131.962 131.929,136.625 122.324,139.772 118.351 C 140.222 117.783,140.486 117.206,140.377 117.030 C 140.260 116.841,140.299 116.789,140.477 116.898 C 140.846 117.127,144.331 112.854,144.092 112.466 C 143.996 112.311,144.040 112.260,144.189 112.352 C 144.521 112.557,146.759 109.966,146.547 109.622 C 146.081 108.868,141.880 106.015,142.294 106.733 C 142.405 106.927,142.384 106.974,142.243 106.844 C 142.109 106.722,141.998 106.542,141.996 106.444 C 141.988 106.081,141.558 105.600,141.251 105.610 C 141.076 105.615,139.997 106.725,138.853 108.076 M164.800 107.467 C 164.487 107.907,164.290 108.267,164.364 108.267 C 164.437 108.267,164.753 107.907,165.067 107.467 C 165.380 107.027,165.576 106.667,165.503 106.667 C 165.430 106.667,165.113 107.027,164.800 107.467 M282.667 108.267 C 282.980 108.707,283.296 109.067,283.370 109.067 C 283.443 109.067,283.247 108.707,282.933 108.267 C 282.620 107.827,282.304 107.467,282.230 107.467 C 282.157 107.467,282.353 107.827,282.667 108.267 M145.727 109.327 C 146.178 109.825,146.179 109.890,145.747 110.550 C 145.209 111.371,144.867 111.248,145.382 110.418 C 145.679 109.939,145.671 109.811,145.333 109.596 C 145.113 109.456,145.053 109.338,145.200 109.333 C 145.347 109.329,145.287 109.209,145.067 109.067 C 144.847 108.924,144.798 108.806,144.959 108.804 C 145.119 108.802,145.465 109.037,145.727 109.327 M160.800 113.067 C 160.487 113.507,160.290 113.867,160.364 113.867 C 160.437 113.867,160.753 113.507,161.067 113.067 C 161.380 112.627,161.576 112.267,161.503 112.267 C 161.430 112.267,161.113 112.627,160.800 113.067 M262.766 114.333 C 261.978 115.416,261.735 115.968,262.384 115.200 C 262.986 114.490,263.546 113.600,263.393 113.600 C 263.342 113.600,263.060 113.930,262.766 114.333 M158.933 115.733 C 158.620 116.173,158.424 116.533,158.497 116.533 C 158.570 116.533,158.887 116.173,159.200 115.733 C 159.513 115.293,159.710 114.933,159.636 114.933 C 159.563 114.933,159.247 115.293,158.933 115.733 M184.800 119.733 C 185.113 120.173,185.430 120.533,185.503 120.533 C 185.576 120.533,185.380 120.173,185.067 119.733 C 184.753 119.293,184.437 118.933,184.364 118.933 C 184.290 118.933,184.487 119.293,184.800 119.733 M258.667 120.267 C 258.353 120.707,258.157 121.067,258.230 121.067 C 258.304 121.067,258.620 120.707,258.933 120.267 C 259.247 119.827,259.443 119.467,259.370 119.467 C 259.296 119.467,258.980 119.827,258.667 120.267 M155.467 120.533 C 155.153 120.973,154.957 121.333,155.030 121.333 C 155.104 121.333,155.420 120.973,155.733 120.533 C 156.047 120.093,156.243 119.733,156.170 119.733 C 156.096 119.733,155.780 120.093,155.467 120.533 M257.067 122.533 C 256.613 123.193,256.301 123.733,256.374 123.733 C 256.448 123.733,256.879 123.193,257.333 122.533 C 257.787 121.873,258.099 121.333,258.026 121.333 C 257.952 121.333,257.521 121.873,257.067 122.533 M165.244 122.844 C 165.147 122.942,165.069 123.152,165.071 123.311 C 165.073 123.470,165.175 123.441,165.298 123.247 C 165.465 122.985,166.177 122.917,168.095 122.981 C 169.510 123.028,170.668 122.977,170.667 122.867 C 170.667 122.619,165.491 122.598,165.244 122.844 M171.850 123.014 C 171.773 123.215,171.745 124.330,171.788 125.490 L 171.867 127.600 174.533 127.600 L 177.200 127.600 177.200 125.200 L 177.200 122.800 174.595 122.724 C 172.578 122.664,171.959 122.730,171.850 123.014 M177.067 125.200 L 177.067 127.467 174.533 127.467 L 172.000 127.467 172.000 125.200 L 172.000 122.933 174.533 122.933 L 177.067 122.933 177.067 125.200 M293.032 123.600 C 293.176 123.893,293.490 124.373,293.729 124.667 L 294.163 125.200 293.901 124.667 C 293.757 124.373,293.444 123.893,293.205 123.600 L 292.771 123.067 293.032 123.600 M165.180 125.600 L 165.200 127.600 167.709 127.677 C 169.090 127.720,170.314 127.660,170.431 127.544 C 170.547 127.428,169.453 127.371,168.000 127.417 L 165.357 127.502 165.259 125.551 L 165.160 123.600 165.180 125.600 M266.783 124.082 C 266.705 124.284,266.677 125.339,266.721 126.425 L 266.800 128.400 268.933 128.416 L 271.067 128.432 269.000 128.339 L 266.933 128.245 266.933 126.123 L 266.933 124.000 269.353 124.000 L 271.773 124.000 271.686 126.255 C 271.639 127.495,271.695 128.413,271.812 128.296 C 271.929 128.179,271.989 127.134,271.945 125.975 L 271.867 123.867 269.395 123.790 C 267.486 123.731,266.892 123.797,266.783 124.082 M273.066 123.933 C 273.066 124.043,273.876 124.100,274.866 124.060 C 278.030 123.930,278.342 123.820,275.667 123.776 C 274.237 123.753,273.066 123.823,273.066 123.933 M255.200 125.200 C 254.746 125.860,254.434 126.400,254.508 126.400 C 254.581 126.400,255.013 125.860,255.467 125.200 C 255.921 124.540,256.232 124.000,256.159 124.000 C 256.086 124.000,255.654 124.540,255.200 125.200 M288.123 125.000 C 288.535 125.623,288.922 126.133,288.984 126.133 C 289.176 126.133,288.155 124.510,287.755 124.179 C 287.546 124.007,287.712 124.377,288.123 125.000 M289.566 127.067 C 289.710 127.360,290.023 127.840,290.262 128.133 L 290.696 128.667 290.434 128.133 C 290.290 127.840,289.977 127.360,289.738 127.067 L 289.304 126.533 289.566 127.067 M142.667 129.067 C 142.353 129.507,142.157 129.867,142.230 129.867 C 142.304 129.867,142.620 129.507,142.933 129.067 C 143.247 128.627,143.443 128.267,143.370 128.267 C 143.296 128.267,142.980 128.627,142.667 129.067 M273.536 128.455 C 273.868 128.519,274.348 128.517,274.603 128.450 C 274.858 128.383,274.587 128.331,274.000 128.334 C 273.413 128.337,273.205 128.391,273.536 128.455 M165.116 130.067 L 165.165 131.600 165.263 130.209 L 165.361 128.818 168.080 128.732 L 170.800 128.646 167.933 128.590 L 165.067 128.533 165.116 130.067 M171.850 128.881 C 171.773 129.082,171.751 130.197,171.801 131.357 L 171.893 133.467 171.946 131.133 L 172.000 128.800 174.553 128.800 L 177.106 128.800 177.020 131.055 C 176.972 132.295,177.029 133.213,177.145 133.096 C 177.262 132.979,177.322 131.934,177.279 130.775 L 177.200 128.667 174.595 128.590 C 172.578 128.531,171.959 128.597,171.850 128.881 M252.123 129.667 C 251.712 130.290,251.546 130.659,251.755 130.487 C 252.155 130.156,253.176 128.533,252.984 128.533 C 252.922 128.533,252.535 129.043,252.123 129.667 M266.783 129.682 C 266.705 129.884,266.677 130.939,266.721 132.025 L 266.800 134.000 268.133 134.027 L 269.467 134.054 268.200 133.946 L 266.933 133.837 266.933 131.719 L 266.933 129.600 269.323 129.600 L 271.712 129.600 271.808 131.800 L 271.903 134.000 271.885 131.733 L 271.867 129.467 269.395 129.390 C 267.486 129.331,266.892 129.397,266.783 129.682 M274.342 129.530 C 275.117 129.584,276.317 129.584,277.009 129.529 C 277.701 129.474,277.067 129.430,275.600 129.431 C 274.133 129.431,273.567 129.476,274.342 129.530 M147.733 131.467 C 147.420 131.907,147.224 132.267,147.297 132.267 C 147.370 132.267,147.687 131.907,148.000 131.467 C 148.313 131.027,148.510 130.667,148.436 130.667 C 148.363 130.667,148.047 131.027,147.733 131.467 M273.304 133.945 C 273.421 134.062,274.466 134.121,275.625 134.076 L 277.733 133.996 275.412 133.864 C 274.135 133.792,273.187 133.829,273.304 133.945 M300.657 135.133 C 301.068 135.757,301.455 136.267,301.517 136.267 C 301.710 136.267,300.688 134.644,300.288 134.313 C 300.080 134.141,300.246 134.510,300.657 135.133 M144.672 135.761 C 144.134 136.510,143.821 137.044,143.977 136.948 C 144.302 136.747,145.954 134.400,145.771 134.400 C 145.705 134.400,145.210 135.013,144.672 135.761 M137.829 135.933 C 137.062 136.860,136.737 137.333,136.869 137.333 C 136.943 137.333,137.324 136.913,137.715 136.400 C 138.442 135.447,138.530 135.088,137.829 135.933 M246.133 138.267 C 245.679 138.927,245.368 139.467,245.441 139.467 C 245.514 139.467,245.946 138.927,246.400 138.267 C 246.854 137.607,247.166 137.067,247.092 137.067 C 247.019 137.067,246.587 137.607,246.133 138.267 M302.667 138.133 C 302.980 138.573,303.296 138.933,303.370 138.933 C 303.443 138.933,303.247 138.573,302.933 138.133 C 302.620 137.693,302.304 137.333,302.230 137.333 C 302.157 137.333,302.353 137.693,302.667 138.133 M197.457 138.600 C 197.868 139.223,198.255 139.733,198.317 139.733 C 198.510 139.733,197.488 138.110,197.088 137.779 C 196.880 137.607,197.046 137.977,197.457 138.600 M142.400 138.933 C 142.087 139.373,141.890 139.733,141.964 139.733 C 142.037 139.733,142.353 139.373,142.667 138.933 C 142.980 138.493,143.176 138.133,143.103 138.133 C 143.030 138.133,142.713 138.493,142.400 138.933 M303.918 140.021 C 304.183 140.472,304.570 140.982,304.779 141.154 C 304.987 141.326,304.821 140.957,304.410 140.333 C 303.547 139.024,303.206 138.808,303.918 140.021 M200.800 143.600 C 201.254 144.260,201.686 144.800,201.759 144.800 C 201.832 144.800,201.521 144.260,201.067 143.600 C 200.613 142.940,200.181 142.400,200.108 142.400 C 200.034 142.400,200.346 142.940,200.800 143.600 M241.067 145.600 C 240.753 146.040,240.557 146.400,240.630 146.400 C 240.704 146.400,241.020 146.040,241.333 145.600 C 241.647 145.160,241.843 144.800,241.770 144.800 C 241.696 144.800,241.380 145.160,241.067 145.600 M239.164 148.277 C 238.778 148.711,238.549 149.067,238.656 149.067 C 238.862 149.067,239.523 148.360,239.842 147.800 C 240.143 147.270,239.921 147.426,239.164 148.277 M230.800 155.976 C 229.773 156.216,229.053 156.487,229.200 156.579 C 229.525 156.781,232.081 156.397,232.694 156.054 C 233.542 155.580,232.652 155.543,230.800 155.976 M195.307 160.943 C 190.640 161.671,184.953 161.974,176.000 161.972 C 170.940 161.971,167.100 162.048,167.467 162.144 C 167.833 162.240,168.423 162.416,168.778 162.535 L 169.423 162.752 168.645 163.386 C 167.909 163.985,167.893 164.039,168.352 164.386 C 168.785 164.713,168.639 164.773,167.019 164.930 C 163.991 165.224,164.468 165.345,168.133 165.213 C 173.957 165.002,185.130 163.521,193.467 161.855 C 198.954 160.759,200.088 160.196,195.307 160.943 M224.800 166.418 C 224.800 167.245,224.817 167.256,225.800 167.076 C 226.949 166.864,227.431 166.515,227.053 166.166 C 226.229 165.403,224.800 165.563,224.800 166.418 M199.200 178.933 C 198.304 179.220,199.272 179.220,200.400 178.933 C 201.119 178.750,201.132 178.729,200.533 178.725 C 200.167 178.722,199.567 178.816,199.200 178.933 " stroke="none" fill="#a14797" fill-rule="evenodd"></path><path id="path3" d="M266.133 93.634 C 261.316 95.070,259.298 95.781,260.533 95.607 C 261.286 95.501,261.373 95.531,260.981 95.762 C 260.713 95.919,260.193 95.972,259.825 95.880 C 259.178 95.718,252.436 97.627,229.098 104.580 C 224.642 105.908,220.712 107.010,220.365 107.030 C 220.018 107.050,219.734 107.188,219.734 107.336 C 219.733 107.485,219.182 108.865,218.508 110.403 C 215.294 117.737,211.449 126.631,208.479 133.600 C 207.010 137.047,205.158 141.360,204.365 143.185 C 203.210 145.841,202.990 146.566,203.261 146.820 C 204.219 147.714,211.148 149.600,213.475 149.600 C 214.189 149.600,214.187 149.606,214.684 146.436 C 215.061 144.030,214.911 143.012,213.725 139.942 C 212.418 136.557,212.552 135.379,214.524 132.959 C 215.875 131.300,216.218 130.677,217.343 127.834 C 218.345 125.303,218.972 124.576,220.339 124.357 C 221.255 124.211,221.352 124.126,221.173 123.629 C 219.927 120.174,222.967 117.326,225.354 119.713 C 226.375 120.734,226.499 123.463,225.578 124.634 L 225.022 125.341 226.822 126.183 C 228.540 126.987,228.686 127.011,230.044 126.712 C 230.827 126.541,232.157 126.270,233.000 126.111 C 235.703 125.602,235.835 125.533,236.400 124.343 C 236.729 123.649,237.116 123.216,237.412 123.210 C 237.809 123.202,237.862 123.048,237.725 122.316 C 237.485 121.035,240.088 119.835,241.876 120.403 C 243.499 120.918,242.273 122.553,240.127 122.733 C 238.855 122.840,238.796 122.881,238.648 123.755 C 238.219 126.288,236.368 128.800,234.930 128.800 C 234.528 128.800,233.014 129.170,231.566 129.623 C 229.241 130.350,228.679 130.430,226.751 130.304 L 224.569 130.162 223.853 132.034 C 223.460 133.064,222.732 134.439,222.236 135.089 C 221.063 136.625,221.038 136.538,223.163 138.255 C 225.295 139.978,225.278 139.973,225.636 138.944 C 226.051 137.754,227.704 137.511,228.114 138.580 C 228.342 139.173,228.812 146.431,228.641 146.708 C 228.565 146.832,227.382 146.933,226.013 146.933 L 223.525 146.933 223.093 148.842 C 222.856 149.892,222.708 150.796,222.763 150.852 C 223.300 151.389,232.000 150.927,232.000 150.361 C 232.000 149.968,240.925 136.590,246.561 128.533 C 247.331 127.433,249.369 124.433,251.090 121.867 C 252.812 119.300,254.304 117.140,254.405 117.067 C 254.506 116.993,254.757 116.619,254.961 116.235 C 255.166 115.850,255.606 115.190,255.938 114.768 C 256.271 114.346,256.871 113.496,257.272 112.880 C 257.672 112.264,259.052 110.187,260.339 108.263 C 261.625 106.340,262.608 104.654,262.523 104.517 C 262.438 104.379,262.508 104.267,262.679 104.267 C 262.850 104.267,262.921 104.087,262.837 103.867 C 262.742 103.619,262.838 103.467,263.091 103.467 C 263.315 103.467,263.432 103.360,263.352 103.230 C 263.272 103.100,263.385 102.845,263.603 102.664 C 263.821 102.483,264.000 102.432,264.000 102.552 C 264.000 103.024,264.784 101.699,264.800 101.200 C 264.822 100.515,265.487 99.632,265.824 99.840 C 265.974 99.933,266.024 99.775,265.943 99.463 C 265.866 99.167,265.697 98.860,265.568 98.780 C 265.439 98.700,265.333 98.515,265.333 98.369 C 265.333 98.222,265.452 98.175,265.596 98.264 C 265.760 98.365,265.795 98.110,265.691 97.588 C 265.463 96.449,267.611 94.356,268.136 95.204 C 268.228 95.353,268.417 95.405,268.556 95.319 C 268.695 95.233,268.744 95.059,268.665 94.931 C 268.587 94.804,268.735 94.576,268.994 94.424 C 269.254 94.273,269.317 94.146,269.133 94.141 C 268.950 94.137,268.800 94.017,268.800 93.875 C 268.800 93.733,268.973 93.683,269.184 93.764 C 269.395 93.845,269.785 93.785,270.050 93.630 C 270.483 93.379,270.464 93.348,269.867 93.332 L 269.200 93.314 269.867 92.933 C 270.962 92.307,269.946 92.498,266.133 93.634 M267.200 93.959 C 266.014 94.386,265.100 94.915,265.530 94.925 C 265.963 94.936,265.857 96.213,265.409 96.385 C 265.172 96.476,265.067 96.239,265.067 95.614 C 265.067 95.117,264.917 94.657,264.733 94.591 C 264.550 94.526,265.000 94.284,265.733 94.054 C 267.335 93.553,268.548 93.474,267.200 93.959 M265.272 99.517 C 265.107 100.011,264.533 100.093,264.533 99.622 C 264.533 99.390,264.723 99.200,264.956 99.200 C 265.188 99.200,265.330 99.343,265.272 99.517 M216.802 141.667 C 216.803 141.850,217.150 142.197,217.573 142.438 C 218.615 143.031,219.007 144.871,218.768 148.043 C 218.572 150.635,218.998 151.390,219.384 149.133 C 219.944 145.853,219.674 142.956,218.729 142.111 C 217.835 141.313,216.799 141.074,216.802 141.667 M132.691 146.467 C 134.122 156.359,141.175 162.432,153.867 164.699 C 158.470 165.521,169.512 165.276,168.352 164.377 C 167.892 164.019,167.905 163.971,168.613 163.435 L 169.359 162.870 168.649 162.502 C 168.259 162.299,167.713 162.133,167.436 162.133 C 167.160 162.133,166.933 162.014,166.933 161.869 C 166.933 161.723,166.483 161.617,165.933 161.633 C 165.383 161.649,163.673 161.520,162.133 161.347 C 148.567 159.822,137.021 154.055,133.593 147.093 C 132.575 145.026,132.472 144.954,132.691 146.467 M261.067 150.960 C 251.605 151.631,232.416 154.896,232.941 155.745 C 233.164 156.107,231.244 156.586,229.515 156.600 C 228.576 156.608,228.138 156.684,228.498 156.777 C 229.486 157.033,227.060 158.134,225.191 158.278 C 223.745 158.389,222.488 158.932,222.846 159.291 C 223.187 159.632,223.717 159.467,223.563 159.067 C 223.395 158.630,224.126 158.491,224.386 158.910 C 224.468 159.044,225.015 159.234,225.600 159.333 C 227.088 159.585,227.142 159.908,225.731 160.120 L 224.533 160.299 224.533 162.683 C 224.533 164.094,224.425 165.067,224.267 165.067 C 224.116 165.067,224.000 165.822,224.000 166.800 C 224.000 167.842,224.113 168.533,224.282 168.533 C 224.438 168.533,224.491 168.413,224.400 168.267 C 224.309 168.120,224.323 167.858,224.430 167.684 C 224.564 167.468,224.681 167.529,224.804 167.877 C 224.948 168.287,225.197 168.370,226.091 168.306 C 226.701 168.262,227.200 168.287,227.200 168.361 C 227.200 168.723,225.395 169.704,223.410 170.420 C 222.194 170.858,221.160 171.333,221.111 171.475 C 221.062 171.617,220.690 171.733,220.284 171.733 C 219.878 171.733,218.982 172.033,218.292 172.400 C 217.603 172.767,216.818 173.067,216.549 173.067 C 216.279 173.067,215.776 173.301,215.430 173.587 L 214.800 174.107 216.000 173.746 C 216.660 173.547,219.300 172.645,221.867 171.741 C 226.959 169.948,232.173 168.260,234.267 167.725 C 235.000 167.537,235.720 167.298,235.867 167.194 C 236.013 167.089,236.793 166.849,237.600 166.660 C 238.407 166.472,239.891 166.030,240.900 165.679 C 243.008 164.944,244.249 164.970,242.346 165.709 C 241.372 166.087,241.163 166.267,241.412 166.514 C 241.953 167.049,243.510 167.732,244.241 167.755 L 244.933 167.777 244.133 168.143 C 243.146 168.595,242.046 168.676,242.667 168.251 C 242.988 168.031,242.946 167.992,242.456 168.055 C 241.396 168.191,241.948 168.665,243.200 168.694 C 245.117 168.738,246.044 169.220,244.667 169.456 C 242.635 169.803,240.797 170.219,240.888 170.311 C 240.939 170.361,243.670 169.985,246.957 169.476 C 262.627 167.046,283.206 166.461,299.328 167.986 C 302.242 168.262,303.535 168.017,304.155 167.071 C 305.250 165.399,303.202 164.432,295.182 162.834 C 286.777 161.159,276.003 160.015,268.547 160.004 C 259.910 159.992,275.687 157.906,288.816 157.324 C 295.459 157.030,304.894 157.209,311.600 157.758 L 313.467 157.910 312.074 157.238 C 302.100 152.419,279.581 149.647,261.067 150.960 M227.053 166.166 C 227.431 166.515,226.949 166.864,225.800 167.076 C 224.817 167.256,224.800 167.245,224.800 166.418 C 224.800 165.563,226.229 165.403,227.053 166.166 M247.933 168.984 C 247.677 169.051,247.257 169.051,247.000 168.984 C 246.743 168.917,246.953 168.862,247.467 168.862 C 247.980 168.862,248.190 168.917,247.933 168.984 M235.867 171.137 C 233.960 171.511,232.520 171.857,232.667 171.906 C 232.813 171.955,234.673 171.649,236.800 171.227 C 238.927 170.804,240.367 170.458,240.000 170.458 C 239.633 170.457,237.773 170.763,235.867 171.137 M226.400 173.028 C 224.713 173.411,223.513 173.754,223.733 173.791 C 223.953 173.827,225.633 173.510,227.467 173.085 C 229.300 172.661,230.500 172.317,230.133 172.322 C 229.767 172.327,228.087 172.645,226.400 173.028 M213.067 174.412 C 212.775 174.610,212.882 174.635,213.467 174.504 C 214.447 174.285,214.660 174.132,213.978 174.137 C 213.697 174.140,213.287 174.263,213.067 174.412 M217.200 175.063 C 215.880 175.398,214.980 175.682,215.200 175.694 C 215.420 175.705,216.740 175.432,218.133 175.087 C 219.527 174.741,220.427 174.457,220.133 174.456 C 219.840 174.455,218.520 174.728,217.200 175.063 M209.600 176.812 C 209.308 177.010,209.416 177.035,210.000 176.904 C 210.981 176.685,211.193 176.532,210.511 176.537 C 210.230 176.540,209.820 176.663,209.600 176.812 M207.067 177.333 C 206.387 177.625,207.088 177.625,208.000 177.333 C 208.536 177.162,208.562 177.118,208.133 177.112 C 207.840 177.108,207.360 177.207,207.067 177.333 " stroke="none" fill="#2caad8" fill-rule="evenodd"></path><path id="path4" d="M120.234 92.243 C 119.885 92.670,118.544 94.189,117.253 95.617 C 112.324 101.072,109.869 104.500,107.522 109.200 C 100.528 123.210,102.188 144.007,111.427 158.116 C 113.125 160.709,113.364 160.608,112.447 157.683 C 111.178 153.637,110.899 145.673,111.629 134.332 C 111.782 131.960,111.721 131.434,110.931 128.349 C 108.830 120.145,113.391 109.491,123.917 98.017 C 126.361 95.352,126.756 93.939,124.933 94.380 C 124.787 94.415,124.755 94.356,124.863 94.248 C 125.048 94.064,123.204 92.528,122.744 92.483 C 122.628 92.471,122.377 92.238,122.185 91.964 C 121.683 91.248,120.963 91.351,120.234 92.243 M126.079 98.592 C 123.321 101.414,121.533 103.515,120.122 105.590 C 119.470 106.549,118.509 107.933,117.986 108.667 C 116.097 111.319,115.957 112.088,116.952 114.326 C 117.330 115.173,117.660 116.347,117.686 116.933 L 117.733 118.000 116.013 118.133 C 113.429 118.334,112.445 120.916,113.297 125.262 C 113.805 127.850,114.045 132.482,113.869 136.267 C 113.776 138.247,113.738 139.917,113.784 139.978 C 114.168 140.492,115.368 136.414,115.571 133.907 C 115.853 130.405,116.495 127.766,117.583 125.632 C 117.866 125.078,118.418 123.494,118.810 122.112 C 120.360 116.647,125.884 108.016,131.537 102.227 C 132.561 101.179,133.320 100.194,133.224 100.039 C 133.046 99.751,128.897 96.824,128.386 96.626 C 128.232 96.566,127.194 97.451,126.079 98.592 M132.802 103.386 C 127.030 109.565,122.778 116.200,121.472 121.067 C 121.217 122.020,120.383 124.300,119.620 126.133 C 117.440 131.370,116.880 134.019,117.335 136.941 L 117.700 139.291 118.201 138.112 C 118.476 137.464,119.010 135.973,119.386 134.800 C 121.590 127.931,126.226 120.328,133.044 112.406 C 134.303 110.942,135.633 109.387,136.000 108.951 C 136.367 108.514,137.148 107.612,137.736 106.945 C 140.040 104.333,140.063 104.795,137.549 103.062 C 136.330 102.222,135.201 101.483,135.039 101.420 C 134.877 101.358,133.870 102.242,132.802 103.386 M117.085 140.733 C 117.100 141.686,117.161 141.868,117.333 141.467 C 117.654 140.721,117.654 139.467,117.333 139.467 C 117.187 139.467,117.075 140.037,117.085 140.733 M120.263 144.721 C 120.192 145.631,120.230 146.278,120.349 146.159 C 120.467 146.040,120.525 145.296,120.478 144.505 L 120.392 143.067 120.263 144.721 " stroke="none" fill="#e2b125" fill-rule="evenodd"></path></g></svg>